# File created by Blade
# Date/Time:  Wed Sep 24 19:25:39 2014
# Frame Rate: 120.000 fps
#------------------------------------------------------
:FULLY-SPECIFIED
:DEGREES
2389
root -17.080864 32.370797 -3.964526 16.426340 56.940864 3.426554
Spine -17.298688 -4.816016 12.005605
Head 8.293481 -10.221669 -2.057344
LeftShoulder -9.639682 19.215979 8.142226
LeftArm 29.122292 7.084718 -62.471657
LeftForeArm 13.053835 -0.000000 65.603517
LeftHand -25.962420 -0.000000 -3.758429
LeftHandThumb1 -26.253704 0.000000 33.147579
RightShoulder -18.667674 8.773554 -28.626252
RightArm -23.923604 26.218017 52.909387
RightForeArm -16.129108 -0.000000 129.231081
RightHand -14.884216 -0.000000 -6.843594
RightHandThumb1 -24.326973 -0.000000 -32.862282
LeftUpLeg -52.455451 58.344739 2.300251
LeftLeg 113.822257 -0.000000 -0.000000
LeftFoot 36.156113 19.615890 -23.681170
LeftToeBase 26.412297 -0.000000 -0.000000
RightUpLeg -14.201693 -10.927170 12.252041
RightLeg 1.217104 -0.000000 -0.000000
RightFoot -11.433667 -26.584029 -2.286591
RightToeBase 1.201062 -0.000000 -0.000000
2390
root -17.066554 32.370792 -3.960233 16.362254 56.779801 3.434144
Spine -17.217004 -4.713314 11.939127
Head 8.312043 -10.221077 -2.062281
LeftShoulder -9.699789 19.330164 8.086626
LeftArm 29.079333 7.166300 -62.488563
LeftForeArm 13.287551 -0.000000 65.603573
LeftHand -26.000332 -0.000000 -3.990979
LeftHandThumb1 -26.253704 0.000000 33.147579
RightShoulder -18.666047 8.786647 -28.610381
RightArm -23.873354 26.153779 52.989376
RightForeArm -16.149970 0.000000 129.258850
RightHand -14.852829 -0.000000 -6.798321
RightHandThumb1 -24.326973 -0.000000 -32.862282
LeftUpLeg -52.011280 58.242240 2.623602
LeftLeg 113.633517 -0.000000 -0.000000
LeftFoot 35.972579 19.718507 -23.797815
LeftToeBase 26.619921 -0.000000 -0.000000
RightUpLeg -14.084009 -10.951182 12.220578
RightLeg 1.173582 -0.000000 -0.000000
RightFoot -11.366975 -26.502064 -2.425317
RightToeBase 1.194604 -0.000000 -0.000000
2391
root -17.055584 32.370846 -3.959911 16.351406 56.637133 3.444303
Spine -17.195081 -4.625967 11.897773
Head 8.326197 -10.211075 -2.097818
LeftShoulder -9.763234 19.443288 8.049667
LeftArm 29.001884 7.319137 -62.491123
LeftForeArm 13.352106 -0.000000 65.679777
LeftHand -26.014270 -0.000000 -4.062604
LeftHandThumb1 -26.253704 0.000000 33.147579
RightShoulder -18.655144 8.793522 -28.614370
RightArm -23.812977 26.076183 53.081084
RightForeArm -16.168878 -0.000000 129.292092
RightHand -14.836193 -0.000000 -6.786048
RightHandThumb1 -24.326973 -0.000000 -32.862282
LeftUpLeg -51.646262 58.092639 2.859251
LeftLeg 113.392281 -0.000000 -0.000000
LeftFoot 36.081884 19.840174 -23.868457
LeftToeBase 26.039992 -0.000000 -0.000000
RightUpLeg -14.037601 -10.989843 12.204225
RightLeg 1.151177 -0.000000 -0.000000
RightFoot -11.299092 -26.419133 -2.586947
RightToeBase 1.140871 -0.000000 -0.000000
2392
root -17.043221 32.371316 -3.958566 16.329177 56.472318 3.443344
Spine -17.174990 -4.527348 11.859004
Head 8.344780 -10.195912 -2.127765
LeftShoulder -9.830708 19.569431 8.004303
LeftArm 28.942590 7.457470 -62.503908
LeftForeArm 13.473907 0.000000 65.701797
LeftHand -26.018448 -0.000000 -4.207822
LeftHandThumb1 -26.253704 0.000000 33.147579
RightShoulder -18.637689 8.799029 -28.616303
RightArm -23.746020 26.000629 53.177409
RightForeArm -16.188551 0.000000 129.329768
RightHand -14.872019 -0.000000 -6.778243
RightHandThumb1 -24.326973 -0.000000 -32.862282
LeftUpLeg -51.296463 57.984618 3.079942
LeftLeg 113.145294 -0.000000 -0.000000
LeftFoot 36.174156 19.826713 -23.643056
LeftToeBase 25.948529 -0.000000 -0.000000
RightUpLeg -13.975553 -11.002235 12.177725
RightLeg 1.123662 -0.000000 -0.000000
RightFoot -11.275473 -26.280098 -2.635825
RightToeBase 1.123926 -0.000000 -0.000000
